<svg width="40" height="40" viewBox="0 0 40 40" fill="none" xmlns="http://www.w3.org/2000/svg">
<path d="M9.75004 28.5002C11.1667 27.4168 12.75 26.5627 14.5 25.9377C16.25 25.3127 18.0834 25.0002 20 25.0002C21.9167 25.0002 23.75 25.3127 25.5 25.9377C27.25 26.5627 28.8334 27.4168 30.25 28.5002C31.2223 27.3613 31.9792 26.0696 32.5209 24.6252C33.0625 23.1807 33.3334 21.6391 33.3334 20.0002C33.3334 16.3057 32.0348 13.1599 29.4375 10.5627C26.8403 7.96544 23.6945 6.66683 20 6.66683C16.3056 6.66683 13.1598 7.96544 10.5625 10.5627C7.96532 13.1599 6.66671 16.3057 6.66671 20.0002C6.66671 21.6391 6.93754 23.1807 7.47921 24.6252C8.02087 26.0696 8.77782 27.3613 9.75004 28.5002ZM20 21.6668C18.3612 21.6668 16.9792 21.1043 15.8542 19.9793C14.7292 18.8543 14.1667 17.4724 14.1667 15.8335C14.1667 14.1946 14.7292 12.8127 15.8542 11.6877C16.9792 10.5627 18.3612 10.0002 20 10.0002C21.6389 10.0002 23.0209 10.5627 24.1459 11.6877C25.2709 12.8127 25.8334 14.1946 25.8334 15.8335C25.8334 17.4724 25.2709 18.8543 24.1459 19.9793C23.0209 21.1043 21.6389 21.6668 20 21.6668ZM20 36.6668C17.6945 36.6668 15.5278 36.2293 13.5 35.3543C11.4723 34.4793 9.70837 33.2918 8.20837 31.7918C6.70837 30.2918 5.52087 28.5279 4.64587 26.5002C3.77087 24.4724 3.33337 22.3057 3.33337 20.0002C3.33337 17.6946 3.77087 15.5279 4.64587 13.5002C5.52087 11.4724 6.70837 9.7085 8.20837 8.2085C9.70837 6.7085 11.4723 5.521 13.5 4.646C15.5278 3.771 17.6945 3.3335 20 3.3335C22.3056 3.3335 24.4723 3.771 26.5 4.646C28.5278 5.521 30.2917 6.7085 31.7917 8.2085C33.2917 9.7085 34.4792 11.4724 35.3542 13.5002C36.2292 15.5279 36.6667 17.6946 36.6667 20.0002C36.6667 22.3057 36.2292 24.4724 35.3542 26.5002C34.4792 28.5279 33.2917 30.2918 31.7917 31.7918C30.2917 33.2918 28.5278 34.4793 26.5 35.3543C24.4723 36.2293 22.3056 36.6668 20 36.6668Z" fill="#1D1B20"/>
</svg>
